<svg data-name="Layer 1" xmlns="http://www.w3.org/2000/svg" viewBox="0 0 30.208 36.055"><path d="M30.208 21.612V0H0v36.055h15.39c4.776 0 14.818-10.85 14.818-14.443zM2.923 33.132V2.923h24.362c.12-.036.023 14.756 0 17.54-.05 6.17-9.16 3.574-9.16 3.574s2.768 9.094-3.508 9.094z" fill="#abe6e3"/><path d="M6.973 7.328l1.773 3.222h1.245V5.838H8.867v2.888L7.223 5.838H5.848v4.712h1.125zm15.43 2.33a2.897 2.897 0 0 1-1.194-.281l-.063-.03-.25.965.037.02a3.4 3.4 0 0 0 1.406.286c1.49 0 2.021-.796 2.021-1.48 0-.661-.413-1.114-1.3-1.424-.651-.234-.867-.353-.867-.6 0-.236.256-.39.652-.39a2.402 2.402 0 0 1 .994.213l.06.027.276-.946L24.132 6a3.227 3.227 0 0 0-1.267-.238c-1.135 0-1.896.58-1.896 1.44 0 .635.463 1.11 1.372 1.411.581.197.78.348.78.599-.001.283-.261.446-.717.446zm-8.353-.069h-2.002v-.987h1.791v-.954h-1.791v-.849h1.899v-.961H10.83v4.712h3.219zm1.486.961l-1.18-4.712h1.294l.616 3.265.692-3.265h1.262l.611 3.206.64-3.206h1.236l-1.284 4.712H18.14l-.611-3.118-.696 3.118zm2.004 2.017h-4.872v5.846h4.872zm-1.949 15.59H5.847v1.95h9.744zm0-3.897H5.847v1.95h9.744zm8.77-3.898H5.847v1.95h18.515zm0-3.898h-4.872v1.95h4.873zm0-3.897h-4.872v1.949h4.873zm-13.642 3.898H5.847v1.948h4.872zm0-3.898H5.847v1.949h4.872z" fill="#57c5c3"/></svg>