<svg data-name="Layer 1" xmlns="http://www.w3.org/2000/svg" viewBox="0 0 35.835 36.065"><path d="M0 0l.005 8.004h25v-8zm3.006 5.008a.996.996 0 1 1 1-.996.998.998 0 0 1-1 .996zM.005 18.003h25v-8h-25zm3-5.01a1.01 1.01 0 1 1-1 1.01 1.005 1.005 0 0 1 1-1.01zm-3 15.01h25v-8h-25zm3-5.004a.996.996 0 1 1-1 .996.999.999 0 0 1 1-.997z" fill="#d2b9ff"/><path d="M19.77 24.48l3.822-3.907-4.808-4.908a2.651 2.651 0 0 0-3.815 0 2.807 2.807 0 0 0-.007 3.907zm13.567 8.405a4.966 4.966 0 0 1-.942-.652l-4.34-4.495-1.277 1.305 4.57 4.632a3.005 3.005 0 0 1 .518.714l.271.535 1.896.988.752-.77-.925-1.98zm-2.632-9.239a4.694 4.694 0 0 0 3.742-1.411 4.896 4.896 0 0 0 1.388-3.434 5.04 5.04 0 0 0-.196-1.392l-2.86 2.926c-1.452.324-3.53-1.826-3.22-3.292l2.861-2.925a4.759 4.759 0 0 0-1.359-.2 4.68 4.68 0 0 0-3.36 1.419 4.929 4.929 0 0 0-1.38 3.826 2.53 2.53 0 0 1-.707 1.951l-10.78 11.023a2.323 2.323 0 0 0-.66 1.627 2.276 2.276 0 0 0 2.251 2.3 2.228 2.228 0 0 0 1.591-.673l10.782-11.023a2.405 2.405 0 0 1 1.907-.721zM16.44 34.684a.942.942 0 1 1 .942-.942.942.942 0 0 1-.942.942z" fill="#9d64fe"/></svg>