<svg data-name="Layer 1" xmlns="http://www.w3.org/2000/svg" viewBox="0 0 42.001 35.993"><path d="M36.717 13.066a9.723 9.723 0 0 0 .62-3.423 9.515 9.515 0 0 0-18.61-2.923 6.614 6.614 0 0 0-4.444-1.713 6.718 6.718 0 0 0-6.653 6.096c-.034 0-.067-.003-.1-.003A7.575 7.575 0 0 0 0 18.72c0 4.208 3.845 7.278 8.004 7.278h27c4.128.031 6.997-2.66 6.997-6.364a6.69 6.69 0 0 0-5.284-6.568zm-2.997-.945l-.758 1.435-1.515-.219a4.758 4.758 0 0 1-.819.679l-.064 1.527-1.552.48-.916-1.225a4.738 4.738 0 0 1-1.06-.098l-1.127 1.035-1.437-.756.22-1.514a4.725 4.725 0 0 1-.68-.817l-1.53-.063-.48-1.55 1.227-.914a4.719 4.719 0 0 1 .1-1.058L22.29 7.937l.759-1.434 1.515.219a4.736 4.736 0 0 1 .819-.679l.064-1.527L27 4.036l.916 1.224a4.757 4.757 0 0 1 1.06.1l1.126-1.036 1.437.756-.219 1.514a4.724 4.724 0 0 1 .68.817l1.53.063.48 1.55-1.227.915a4.725 4.725 0 0 1-.1 1.058z" fill="#b7dafe"/><path d="M27.412 8.112a2.008 2.008 0 1 0 2.515 1.324 2.007 2.007 0 0 0-2.515-1.324z" fill="#b7dafe"/><path d="M31.24 27.345v-2.692l-2.389-.85a7.886 7.886 0 0 0-.674-1.629l1.088-2.291-1.902-1.903-2.29 1.09a7.855 7.855 0 0 0-1.627-.676l-.85-2.39h-2.69l-.85 2.39a7.841 7.841 0 0 0-1.629.677l-2.29-1.09-1.902 1.903 1.089 2.291a7.847 7.847 0 0 0-.675 1.629l-2.389.85v2.692l2.389.849a7.818 7.818 0 0 0 .675 1.628l-1.089 2.292 1.902 1.903 2.29-1.088a7.916 7.916 0 0 0 1.628.675l.85 2.39h2.69l.85-2.39a7.913 7.913 0 0 0 1.628-.675l2.29 1.088 1.902-1.903-1.088-2.293a7.808 7.808 0 0 0 .675-1.628zm-9.99 3.212A4.559 4.559 0 1 1 25.806 26a4.556 4.556 0 0 1-4.556 4.558z" fill="#4d8eda"/></svg>