<svg data-name="Layer 1" xmlns="http://www.w3.org/2000/svg" viewBox="0 0 39.009 36.007"><path d="M36.233 6.717a2.772 2.772 0 0 0-2.502 1.602L21.768 4.077c.008-.098.012-.197.012-.296a3.721 3.721 0 1 0-6.417 2.601L5.01 18.54a3.386 3.386 0 0 0-1.574-.39 3.49 3.49 0 0 0 0 6.98 3.39 3.39 0 0 0 2.247-.858l9.201 7.662a2.734 2.734 0 0 0-.36 1.357 2.674 2.674 0 1 0 5.347 0 2.735 2.735 0 0 0-.08-.652l10.057-6.009a3.459 3.459 0 0 0 2.716 1.317 3.57 3.57 0 0 0 1.198-6.91l2.258-8.691c.07.006.142.01.214.01a2.82 2.82 0 0 0 0-5.639zm-2.766 3.04l-7.902 3.196-4.496-6.96a3.764 3.764 0 0 0 .53-1.058l11.887 4.217a2.73 2.73 0 0 0-.028.384c0 .075.003.148.01.22zm-19.521 7.101a1.1 1.1 0 1 1-1.082 1.1 1.092 1.092 0 0 1 1.082-1.1zm4.346-.963l.465-8.406a3.673 3.673 0 0 0 1.714-.838l4.284 6.63zm6.94-1.874l2.894 4.477-2.6 3.309-7.42-2.562.133-2.395zm-7.335-6.465l-.482 8.694-1.794.725a1.972 1.972 0 0 0-.768-.751l2.47-8.74a3.796 3.796 0 0 0 .574.072zm-2.021 10.25l1.486-.602-.097 1.75-1.445-.499a1.978 1.978 0 0 0 .064-.496 2.601 2.601 0 0 0-.008-.154zm1.602 12.787l.578-10.45 6.904 2.385-6.557 8.34a2.618 2.618 0 0 0-.925-.275zM16.51 7.215l-2.482 8.779a1.699 1.699 0 0 0-.082-.002 1.963 1.963 0 0 0-1.894 2.372l-5.364 2.162a3.492 3.492 0 0 0-.97-1.49l10.3-12.095a3.75 3.75 0 0 0 .492.274zm9.31 15.61l3.266 1.127a3.366 3.366 0 0 0-.03.432 3.555 3.555 0 0 0 .335 1.512l-9.94 5.94a2.746 2.746 0 0 0-.358-.454zm.566-.722l2.234-2.84 1.6 2.475a3.578 3.578 0 0 0-.927 1.369zm2.302-4.319l-2.645-4.091 7.627-3.086a2.81 2.81 0 0 0 .265.503zM6.87 21.64c0-.085-.003-.169-.01-.252l5.549-2.235a1.913 1.913 0 0 0 3.01.08l1.796.62-.597 10.788a2.645 2.645 0 0 0-1.195.62l-9.17-7.635a3.49 3.49 0 0 0 .617-1.986zm26.057-.796a3.244 3.244 0 0 0-.364-.023 3.456 3.456 0 0 0-1.642.42l-1.74-2.693 5.342-6.796a2.743 2.743 0 0 0 .663.392z" fill="#6edb24"/></svg>