<svg data-name="Layer 1" xmlns="http://www.w3.org/2000/svg" viewBox="0 0 38.492 36"><path d="M32.546 28.801l1.929-3.272-2.591-2.372a14.915 14.915 0 0 0 .919-5.878L36 15.78l-.84-3.69-3.518.087a14.723 14.723 0 0 0-3.694-5.17l1.202-3.332-1.623-1.001L25.91 1.66l-2.45 2.555a14.701 14.701 0 0 0-6.267-1.021L15.712 0l-3.676.883.076 3.534a14.889 14.889 0 0 0-4.854 3.431L3.984 6.576 1.91 9.758l2.482 2.491a14.982 14.982 0 0 0-1.175 6.32L0 20.03l.794 3.701 3.518-.043a14.641 14.641 0 0 0 3.615 5.2L6.68 32.203l1.817 1.155 1.84 1.118 2.415-2.59a14.608 14.608 0 0 0 6.26.938L20.531 36l3.665-.929-.119-3.534a14.961 14.961 0 0 0 5.136-3.858zM16.7 27.371a9.219 9.219 0 0 1-3.67-1.358 9.213 9.213 0 0 1-2.845-2.688 9.47 9.47 0 0 1 2.45-13.111 9.466 9.466 0 0 1 14.729 9.145A9.469 9.469 0 0 1 16.7 27.371z" fill="#aae4e2"/><path d="M36.492 22.458v-11h-4v11h-2v-8h-4v8h-2v-5h-4v5h-2l-.004 1h20.004v-1zm-11.858-9.984h4.003l5.934-5.32v2.225h1.078V5.464h-4.166v1.013h2.28l-5.559 4.984H24.16l-.16.164c-.735.752-3.14 3.218-3.248 3.346l.838.638a494.42 494.42 0 0 1 3.044-3.135z" fill="#51c3c1"/></svg>