<svg data-name="Layer 1" xmlns="http://www.w3.org/2000/svg" viewBox="0 0 35.975 36"><path d="M35.975 20.424v-4.847c-2.451-.873-4.034-1.124-4.826-3.03-.789-1.91.153-3.209 1.27-5.56l-3.425-3.428c-2.36 1.122-3.65 2.06-5.555 1.27l-.002-.001C21.532 4.038 21.282 2.452 20.41 0h-4.844c-.876 2.464-1.124 4.039-3.028 4.828-1.911.793-3.217-.156-5.557-1.27l-3.424 3.43c1.12 2.356 2.058 3.653 1.268 5.559-.789 1.9-2.35 2.149-4.825 3.03v4.848c2.447.873 4.038 1.125 4.827 3.032.79 1.909-.159 3.214-1.27 5.559l3.424 3.427c2.366-1.126 3.652-2.063 5.542-1.274h.002c1.918.798 2.169 2.38 3.04 4.832h4.845c.874-2.458 1.122-4.038 3.028-4.829h.002c1.907-.792 3.21.157 5.554 1.27l3.425-3.426c-1.097-2.313-2.065-3.64-1.27-5.561.79-1.905 2.381-2.158 4.826-3.03zm-17.988 7.632A10.055 10.055 0 1 1 28.032 18a10.052 10.052 0 0 1-10.044 10.055z" fill="#fbdc82"/><path d="M24.485 23.75c0-.238.003-.462.003-.672 0-1.365-.108-2.153-1.722-2.526-1.863-.43-3.597-.807-2.757-2.393 2.556-4.827.678-7.41-2.022-7.41-2.752 0-4.584 2.681-2.021 7.41.865 1.595-.934 1.972-2.757 2.393-1.614.373-1.721 1.16-1.721 2.526l.002.672z" fill="#f8ba1d"/></svg>