<svg data-name="Layer 1" xmlns="http://www.w3.org/2000/svg" viewBox="0 0 33.081 36"><path d="M11.578 34.387A1.61 1.61 0 0 0 13.186 36h5.009v-3.324h-5.01a1.697 1.697 0 0 0-1.607 1.71zm18.88-21.628C29.115 5.55 24.028 0 16.541 0S3.966 5.55 2.624 12.759A2.912 2.912 0 0 0 0 15.657V23.1a2.92 2.92 0 0 0 2.914 2.927h5.097a12.416 12.416 0 0 1 0-13.298h-2.4a10.86 10.86 0 0 1 10.93-8.454A10.861 10.861 0 0 1 27.47 12.73h-2.4a12.415 12.415 0 0 1 0 13.298h5.1a2.918 2.918 0 0 0 2.911-2.926v-7.444a2.912 2.912 0 0 0-2.623-2.9zM19.849 33.523v1.698c5.965 0 9.682-2.147 10.186-7.532h-1.7c-.363 4.136-3.141 5.834-8.486 5.834z" fill="#a4e2e1"/><path d="M21.223 21.915c0-2.87-2.987-3.668-5.276-4.744-1.39-.722-1.214-2.447.778-2.563a8.584 8.584 0 0 1 3.268.621l.484-2.203a12.348 12.348 0 0 0-3.267-.563v-1.362h-1.338v1.427c-2.602.358-3.992 1.99-3.992 3.813 0 3.262 3.808 3.76 5.054 4.34 1.699.76 1.385 2.341-.153 2.69a8.159 8.159 0 0 1-4.315-.722l-.608 2.199a9.258 9.258 0 0 0 4.014.972v1.335h1.338v-1.408c2.216-.31 4.016-1.534 4.013-3.832z" fill="#2fc4c2"/></svg>