<svg data-name="Layer 1" xmlns="http://www.w3.org/2000/svg" viewBox="0 0 36 36"><path d="M29.42 25.178A13.424 13.424 0 0 0 31.154 21H36v-6h-4.846a13.427 13.427 0 0 0-1.734-4.178l3.43-3.429-4.245-4.243-3.429 3.43A13.401 13.401 0 0 0 21 4.846V0h-6v4.846a13.425 13.425 0 0 0-4.178 1.734L7.393 3.151 3.15 7.394l3.431 3.43A13.417 13.417 0 0 0 4.846 15H0v6h4.846a13.418 13.418 0 0 0 1.734 4.177l-3.43 3.429 4.243 4.244 3.43-3.43A13.468 13.468 0 0 0 15 31.155V36h6v-4.845a13.422 13.422 0 0 0 4.176-1.735 14.585 14.585 0 0 0 4.244-4.242zM18 26.871A8.87 8.87 0 1 1 26.87 18 8.87 8.87 0 0 1 18 26.87z" fill="#fbda79"/><path d="M33.971 30.063l-9.14-9.069a2.822 2.822 0 0 1-.81-2.197 5.495 5.495 0 0 0-1.581-4.309 5.404 5.404 0 0 0-3.849-1.598 5.525 5.525 0 0 0-1.557.224l3.277 3.295c.356 1.652-2.025 4.072-3.687 3.707l-3.278-3.294a5.591 5.591 0 0 0-.224 1.567 5.455 5.455 0 0 0 5.877 5.456 2.784 2.784 0 0 1 2.185.814l9.141 9.069a2.585 2.585 0 0 0 3.646-3.665zm-1.83 2.865a1.04 1.04 0 1 1 1.035-1.039 1.036 1.036 0 0 1-1.034 1.039z" fill="#f8ba1d"/></svg>