<svg xmlns="http://www.w3.org/2000/svg" viewBox="0 0 246 246"><path fill="#0091ff" d="M195 81.422v83.141l-72 41.579-72-41.579V81.422l72-41.562 72 41.562"/><path fill="#26a1ff" d="M123 39.86L51 81.422l72 41.579V39.859v.001"/><path fill="#0081ff" d="M123 122.999l-72 41.562 72 41.58V123"/><path fill="#0075ff" d="M195 81.422l-72 41.579 72 41.562V81.422"/><path fill="#1c89ff" d="M123 39.859V123l72-41.578-72-41.562"/><path fill="#0061ff" d="M123 123.001v83.139l72-41.579L123 123"/><path d="M144.845 153.83H88.327v-10.348h56.518a7.654 7.654 0 1 0 0-15.307h-43.69a18.002 18.002 0 1 1 0-36.004h56.518v10.348h-56.518a7.654 7.654 0 1 0 0 15.308h43.69a18.001 18.001 0 1 1 0 36.003z" fill="#fff"/></svg>